<?xml version="1.0" encoding="utf-8"?>
<!-- Generator: Adobe Illustrator 16.0.0, SVG Export Plug-In . SVG Version: 6.00 Build 0)  -->
<!DOCTYPE svg PUBLIC "-//W3C//DTD SVG 1.1//EN" "http://www.w3.org/Graphics/SVG/1.1/DTD/svg11.dtd">
<svg version="1.1" id="Layer_1" xmlns="http://www.w3.org/2000/svg" xmlns:xlink="http://www.w3.org/1999/xlink" x="0px" y="0px"
	 width="640px" height="365.982px" viewBox="0 0 640 365.982" enable-background="new 0 0 640 365.982" xml:space="preserve">
<path fill="#A38EF3" stroke="#FFFFFF" stroke-width="5" stroke-miterlimit="10" d="M160.099,340.234
	c-13.347,0.152-26.641-1.69-39.443-5.47c-12.801-3.779-24.967-9.449-36.09-16.825l74.001-111.616L160.099,340.234L160.099,340.234z"
	/>
<path fill="#E96B88" stroke="#FFFFFF" stroke-width="5" stroke-miterlimit="10" d="M215.725,85.213
	c16.863,7.958,31.881,19.353,44.088,33.452c12.207,14.098,21.333,30.593,26.798,48.423c5.463,17.83,7.142,36.607,4.929,55.125
	c-2.211,18.516-8.268,36.37-17.78,52.41l-115.193-68.3L215.725,85.213L215.725,85.213z"/>
<path fill="#5BC69F" stroke="#FFFFFF" stroke-width="5" stroke-miterlimit="10" d="M273.76,274.624
	c-11.721,19.77-28.337,36.192-48.242,47.683c-19.905,11.49-42.438,17.664-65.419,17.928l-1.532-133.911L273.76,274.624
	L273.76,274.624z"/>
<g>
	<g>
		<path fill="#7ABFEA" d="M351.752,108.254V91.576c0-3.136-1.663-4.894-4.752-4.894c-3.421,0-5.227,1.996-6.082,3.374v18.199h-4.751
			V90.198l-0.333-7.127h4.087l0.522,3.469c1.521-2.281,4.182-4.039,8.315-4.039c5.273,0,7.697,3.659,7.697,8.315v17.438H351.752z"/>
		<path fill="#7ABFEA" d="M361.116,96.328v-1.331c0-7.08,3.373-12.497,11.023-12.497c7.649,0,11.023,5.417,11.023,12.497v1.331
			c0,7.08-3.374,12.497-11.023,12.497C364.489,108.824,361.116,103.407,361.116,96.328z M378.364,96.328v-1.331
			c0-5.037-1.948-8.315-6.225-8.315s-6.225,3.279-6.225,8.315v1.331c0,5.037,1.948,8.315,6.225,8.315
			S378.364,101.364,378.364,96.328z"/>
		<path fill="#7ABFEA" d="M403.693,108.254V91.576c0-3.136-1.663-4.894-4.752-4.894c-3.421,0-5.227,1.996-6.082,3.374v18.199h-4.751
			V90.198l-0.333-7.127h4.087l0.522,3.469c1.521-2.281,4.182-4.039,8.315-4.039c5.273,0,7.697,3.659,7.697,8.315v17.438H403.693z"/>
		<path fill="#7ABFEA" d="M417.856,97.468c0.189,4.894,2.28,7.555,6.604,7.555c4.182,0,6.082-2.566,6.082-4.847h4.562v0.19
			c0,4.229-3.517,8.458-10.691,8.458c-7.888,0-11.355-5.512-11.355-12.592v-1.141c0-7.08,3.516-12.591,11.118-12.591
			c7.555,0,10.929,5.512,10.929,12.591v2.376H417.856z M417.856,93.856h12.449c-0.19-4.751-2.139-7.555-6.225-7.555
			C419.994,86.302,417.999,89.105,417.856,93.856z"/>
	</g>
</g>
<g>
	<g>
		<path fill="#E96B88" d="M348.046,153.17v4.562h-0.855c-3.563,0-5.369,1.853-6.272,3.231v17.914h-4.751V160.82l-0.333-7.127h4.087
			l0.475,3.231c1.426-2.138,3.706-3.801,6.938-3.801C347.618,153.123,347.95,153.17,348.046,153.17z"/>
		<path fill="#E96B88" d="M355.509,168.09c0.189,4.894,2.28,7.555,6.604,7.555c4.182,0,6.082-2.566,6.082-4.847h4.562v0.19
			c0,4.229-3.517,8.458-10.691,8.458c-7.888,0-11.355-5.512-11.355-12.592v-1.141c0-7.08,3.516-12.591,11.118-12.591
			c7.555,0,10.929,5.512,10.929,12.591v2.376H355.509z M355.509,164.479h12.449c-0.19-4.751-2.139-7.555-6.225-7.555
			C357.646,156.924,355.651,159.728,355.509,164.479z"/>
		<path fill="#E96B88" d="M393.287,176.311c-1.426,1.806-3.611,3.136-6.89,3.136c-6.89,0-9.551-5.417-9.551-12.497v-1.331
			c0-7.08,2.661-12.497,9.551-12.497c3.658,0,5.986,1.71,7.317,3.849l0.522-3.279h4.134l-0.332,7.127v27.56h-4.752V176.311z
			 M393.287,160.678c-0.903-1.378-2.661-3.374-5.702-3.374c-4.086,0-5.939,3.184-5.939,8.315v1.331c0,5.131,1.854,8.315,5.939,8.315
			c3.041,0,4.799-1.996,5.702-3.374V160.678z"/>
		<path fill="#E96B88" d="M408.447,153.693v16.678c0,3.136,1.663,4.894,4.704,4.894c3.422,0,5.228-1.996,6.13-3.374v-18.199h4.752
			v18.056l0.332,7.127h-4.134l-0.522-3.469c-1.521,2.281-4.182,4.039-8.315,4.039c-5.227,0-7.697-3.659-7.697-8.315v-17.438H408.447
			z"/>
		<path fill="#E96B88" d="M435.202,148.466h-5.417v-5.417h5.417V148.466z M430.118,153.693h4.752v25.184h-4.752V153.693z"/>
		<path fill="#E96B88" d="M452.88,153.17v4.562h-0.855c-3.563,0-5.369,1.853-6.272,3.231v17.914h-4.751V160.82l-0.333-7.127h4.087
			l0.475,3.231c1.426-2.138,3.706-3.801,6.938-3.801C452.452,153.123,452.784,153.17,452.88,153.17z"/>
		<path fill="#E96B88" d="M460.342,168.09c0.189,4.894,2.28,7.555,6.604,7.555c4.182,0,6.082-2.566,6.082-4.847h4.562v0.19
			c0,4.229-3.516,8.458-10.691,8.458c-7.888,0-11.355-5.512-11.355-12.592v-1.141c0-7.08,3.516-12.591,11.118-12.591
			c7.555,0,10.929,5.512,10.929,12.591v2.376H460.342z M460.342,164.479h12.449c-0.19-4.751-2.139-7.555-6.225-7.555
			C462.479,156.924,460.484,159.728,460.342,164.479z"/>
		<path fill="#E96B88" d="M511.377,178.876v-17.201c0-3.231-1.615-4.372-4.229-4.372c-3.041,0-4.562,1.853-5.465,3.279v18.293
			h-4.751v-17.201c0-3.231-1.616-4.372-4.182-4.372c-3.041,0-4.609,1.853-5.465,3.279v18.293h-4.751V160.82l-0.333-7.127h4.087
			l0.522,3.279c1.425-2.138,3.896-3.849,7.697-3.849c3.326,0,5.512,1.521,6.51,4.086c1.426-2.28,3.943-4.086,7.888-4.086
			c4.799,0,7.175,3.088,7.175,7.84v17.914H511.377z"/>
		<path fill="#E96B88" d="M525.59,168.09c0.189,4.894,2.28,7.555,6.604,7.555c4.182,0,6.082-2.566,6.082-4.847h4.562v0.19
			c0,4.229-3.516,8.458-10.691,8.458c-7.888,0-11.355-5.512-11.355-12.592v-1.141c0-7.08,3.516-12.591,11.118-12.591
			c7.555,0,10.929,5.512,10.929,12.591v2.376H525.59z M525.59,164.479h12.449c-0.19-4.751-2.139-7.555-6.225-7.555
			C527.728,156.924,525.732,159.728,525.59,164.479z"/>
		<path fill="#E96B88" d="M563.368,178.876v-16.678c0-3.136-1.663-4.894-4.752-4.894c-3.421,0-5.227,1.996-6.082,3.374v18.199
			h-4.751V160.82l-0.333-7.127h4.087l0.522,3.469c1.521-2.281,4.181-4.039,8.315-4.039c5.273,0,7.697,3.659,7.697,8.315v17.438
			H563.368z"/>
		<path fill="#E96B88" d="M587.652,153.693v4.229h-7.507v12.83c0,3.659,1.567,4.514,4.419,4.514c0.998,0,2.233-0.237,2.613-0.38
			v3.991c-0.38,0.19-1.615,0.57-3.706,0.57c-4.752,0-8.078-2.186-8.078-8.173v-13.352h-3.943v-4.229h3.943v-7.127h4.752v7.127
			H587.652z"/>
		<path fill="#E96B88" d="M607.422,171.749c0-2.756-1.616-3.563-5.845-3.896c-6.89-0.618-9.218-2.756-9.218-6.842v-0.333
			c0-4.847,3.849-7.555,9.788-7.555c7.08,0,9.836,3.468,9.836,8.553v0.19h-4.704c0-3.041-1.283-4.941-5.132-4.941
			c-3.184,0-5.037,1.33-5.037,3.659c0,2.281,1.046,3.421,5.607,3.801c6.319,0.475,9.551,2.138,9.551,6.985v0.285
			c0,4.656-3.517,7.792-10.121,7.792c-7.223,0-10.073-3.944-10.073-8.173v-0.19h4.704c0,2.375,1.235,4.562,5.369,4.562
			C605.664,175.646,607.422,174.077,607.422,171.749z"/>
	</g>
</g>
<g>
	<g>
		<path fill="#A38EF3" d="M346.145,316.51c3.896,0,5.417-2.471,5.417-5.322h4.562v0.855c0,4.419-3.041,8.648-10.073,8.648
			c-7.555,0-10.833-5.417-10.833-12.497v-1.331c0-7.08,3.278-12.497,10.833-12.497c7.032,0,10.073,4.371,10.073,8.98v0.998h-4.562
			c0-3.374-1.615-5.797-5.417-5.797c-4.276,0-6.129,3.279-6.129,8.315v1.331C340.016,313.231,341.868,316.51,346.145,316.51z"/>
		<path fill="#A38EF3" d="M360.071,308.195v-1.331c0-7.08,3.373-12.497,11.023-12.497c7.649,0,11.023,5.417,11.023,12.497v1.331
			c0,7.08-3.374,12.497-11.023,12.497C363.444,320.691,360.071,315.274,360.071,308.195z M377.319,308.195v-1.331
			c0-5.037-1.948-8.315-6.225-8.315s-6.225,3.279-6.225,8.315v1.331c0,5.037,1.948,8.315,6.225,8.315
			S377.319,313.231,377.319,308.195z"/>
		<path fill="#A38EF3" d="M402.648,320.121v-16.678c0-3.136-1.663-4.894-4.752-4.894c-3.421,0-5.227,1.996-6.082,3.374v18.199
			h-4.751v-18.056l-0.333-7.127h4.087l0.522,3.469c1.521-2.281,4.182-4.039,8.315-4.039c5.273,0,7.697,3.659,7.697,8.315v17.438
			H402.648z"/>
		<path fill="#A38EF3" d="M428.643,297.551v-15.443h4.8v30.885l0.332,7.127h-4.134l-0.522-3.279
			c-1.378,2.186-3.659,3.849-7.365,3.849c-6.89,0-9.551-5.417-9.551-12.497v-1.331c0-7.08,2.661-12.497,9.551-12.497
			C425.031,294.368,427.218,295.698,428.643,297.551z M428.643,301.922c-0.855-1.378-2.613-3.374-5.654-3.374
			c-4.134,0-5.987,3.184-5.987,8.315v1.331c0,5.131,1.854,8.315,5.987,8.315c3.041,0,4.799-1.996,5.654-3.374V301.922z"/>
		<path fill="#A38EF3" d="M454.21,316.89c-1.711,2.138-4.467,3.801-8.553,3.801c-4.989,0-7.413-3.089-7.413-7.127v-0.475
			c0-5.464,3.991-7.127,8.506-7.793l6.984-1.093v-0.38c0-3.754-1.188-5.654-5.036-5.654c-4.039,0-4.989,2.375-4.989,5.084h-4.515
			v-0.428c0-3.991,1.901-8.458,9.646-8.458c7.364,0,9.646,3.753,9.646,9.456v9.17l0.332,7.127h-4.134L454.21,316.89z
			 M453.734,313.421v-6.129l-6.271,1.045c-2.946,0.476-4.515,1.901-4.515,4.277v0.38c0,1.901,1.235,3.707,4.229,3.707
			C450.931,316.7,452.879,314.704,453.734,313.421z"/>
	</g>
</g>
<g>
	<path fill="#5BC69F" d="M351.847,226.929v-15.443h4.8v30.885l0.332,7.127h-4.134l-0.522-3.279
		c-1.378,2.186-3.659,3.849-7.365,3.849c-6.89,0-9.551-5.417-9.551-12.497v-1.331c0-7.08,2.661-12.497,9.551-12.497
		C348.235,223.745,350.422,225.075,351.847,226.929z M351.847,231.3c-0.855-1.378-2.613-3.374-5.654-3.374
		c-4.134,0-5.987,3.184-5.987,8.315v1.331c0,5.131,1.854,8.315,5.987,8.315c3.041,0,4.799-1.996,5.654-3.374V231.3z"/>
	<path fill="#5BC69F" d="M361.544,237.572v-1.331c0-7.08,3.373-12.497,11.023-12.497c7.649,0,11.023,5.417,11.023,12.497v1.331
		c0,7.08-3.374,12.497-11.023,12.497C364.917,250.069,361.544,244.652,361.544,237.572z M378.792,237.572v-1.331
		c0-5.037-1.948-8.315-6.225-8.315s-6.225,3.279-6.225,8.315v1.331c0,5.037,1.948,8.315,6.225,8.315
		S378.792,242.609,378.792,237.572z"/>
	<path fill="#5BC69F" d="M398.514,245.887c3.896,0,5.417-2.471,5.417-5.322h4.562v0.855c0,4.419-3.041,8.648-10.073,8.648
		c-7.555,0-10.833-5.417-10.833-12.497v-1.331c0-7.08,3.278-12.497,10.833-12.497c7.032,0,10.073,4.371,10.073,8.98v0.998h-4.562
		c0-3.374-1.615-5.797-5.417-5.797c-4.276,0-6.129,3.279-6.129,8.315v1.331C392.385,242.609,394.237,245.887,398.514,245.887z"/>
	<path fill="#5BC69F" d="M413.295,211.486h4.752v24.566l10.264-11.737h5.797l-8.553,9.503l8.553,15.68h-5.512l-6.32-12.021
		l-4.229,4.751v7.27h-4.752V211.486z"/>
	<path fill="#5BC69F" d="M440.62,238.712c0.189,4.894,2.28,7.555,6.604,7.555c4.182,0,6.082-2.566,6.082-4.847h4.562v0.19
		c0,4.229-3.517,8.458-10.691,8.458c-7.888,0-11.355-5.512-11.355-12.592v-1.141c0-7.08,3.516-12.591,11.118-12.591
		c7.555,0,10.929,5.512,10.929,12.591v2.376H440.62z M440.62,235.101h12.449c-0.19-4.751-2.139-7.555-6.225-7.555
		C442.758,227.546,440.763,230.35,440.62,235.101z"/>
	<path fill="#5BC69F" d="M474.692,223.792v4.562h-0.855c-3.563,0-5.369,1.853-6.272,3.231v17.914h-4.751v-18.056l-0.333-7.127h4.087
		l0.475,3.231c1.426-2.138,3.706-3.801,6.938-3.801C474.265,223.745,474.597,223.792,474.692,223.792z"/>
	<path fill="#5BC69F" d="M486.479,224.315h6.557v4.229h-6.557v20.955h-4.752v-20.955h-3.943v-4.229h3.943v-5.227
		c0-5.987,3.326-8.173,8.078-8.173c2.091,0,3.326,0.38,3.706,0.57v3.991c-0.38-0.143-1.615-0.38-2.613-0.38
		c-2.852,0-4.419,0.855-4.419,4.514V224.315z"/>
	<path fill="#5BC69F" d="M503.349,219.088h-5.417v-5.417h5.417V219.088z M498.265,224.315h4.752v25.184h-4.752V224.315z"/>
	<path fill="#5BC69F" d="M509.385,211.486h4.752v38.013h-4.752V211.486z"/>
	<path fill="#5BC69F" d="M524.116,238.712c0.189,4.894,2.28,7.555,6.604,7.555c4.182,0,6.082-2.566,6.082-4.847h4.562v0.19
		c0,4.229-3.517,8.458-10.691,8.458c-7.888,0-11.355-5.512-11.355-12.592v-1.141c0-7.08,3.516-12.591,11.118-12.591
		c7.555,0,10.929,5.512,10.929,12.591v2.376H524.116z M524.116,235.101h12.449c-0.19-4.751-2.139-7.555-6.225-7.555
		C526.254,227.546,524.259,230.35,524.116,235.101z"/>
</g>
<path fill="#7ABFEA" stroke="#FFFFFF" stroke-width="5" stroke-miterlimit="10" d="M84.566,317.94
	c-28.2-18.697-48.292-47.4-56.205-80.296c-7.913-32.895-3.073-67.598,13.539-97.071c16.611-29.475,43.791-51.588,76.028-61.855
	c32.239-10.267,67.2-7.945,97.797,6.496l-57.157,121.11L84.566,317.94L84.566,317.94z"/>
<circle fill="#FFFFFF" cx="160.322" cy="208.291" r="59.667"/>
<text transform="matrix(1 0 0 1 54.0581 175.8242)" fill="#FFFFFF" font-family="'Hack-Regular'" font-size="21">47%</text>
<text transform="matrix(1 0 0 1 230.5659 183.8926)" fill="#FFFFFF" font-family="'Hack-Regular'" font-size="21">27%</text>
<text transform="matrix(1 0 0 1 187.5532 298.1924)" fill="#FFFFFF" font-family="'Hack-Regular'" font-size="21">16%</text>
<text transform="matrix(1 0 0 1 110.3877 311.6973)" fill="#FFFFFF" font-family="'Hack-Regular'" font-size="21">10%</text>
<g>
	<text transform="matrix(1 0 0 1 119.333 215.2378)"><tspan x="0" y="0" fill="#565759" font-family="'Hack-Regular'" font-size="22.1824">n</tspan><tspan x="13.355" y="0" fill="#565759" font-family="'Hack-Regular'" font-size="12"> </tspan><tspan x="20.58" y="0" fill="#565759" font-family="'Hack-Regular'" font-size="22.1824">=</tspan><tspan x="33.935" y="0" fill="#565759" font-family="'Hack-Regular'" font-size="12"> </tspan><tspan x="41.159" y="0" fill="#565759" font-family="'Hack-Regular'" font-size="22.1824">287</tspan></text>
</g>
</svg>
